<mxfile host="app.diagrams.net" agent="Mozilla/5.0 (Macintosh; Intel Mac OS X 10_15_7) AppleWebKit/537.36 (KHTML, like Gecko) Chrome/129.0.0.0 Safari/537.36" version="24.7.17">
  <diagram name="第 1 页" id="dMrdqhf6_QR0lIxlp7QM">
    <mxGraphModel dx="411" dy="1837" grid="1" gridSize="10" guides="1" tooltips="1" connect="1" arrows="1" fold="1" page="1" pageScale="1" pageWidth="827" pageHeight="1169" math="0" shadow="0">
      <root>
        <mxCell id="0" />
        <mxCell id="1" parent="0" />
        <mxCell id="HS7RdtkxgPkFgvcBo9SO-7" style="edgeStyle=orthogonalEdgeStyle;rounded=0;orthogonalLoop=1;jettySize=auto;html=1;exitX=1;exitY=0.5;exitDx=0;exitDy=0;entryX=0;entryY=0.5;entryDx=0;entryDy=0;" parent="1" source="VX3rwLZmTcrIT6lRmgwz-5" target="HS7RdtkxgPkFgvcBo9SO-3" edge="1">
          <mxGeometry relative="1" as="geometry" />
        </mxCell>
        <mxCell id="VX3rwLZmTcrIT6lRmgwz-5" value="变更分支" style="rounded=0;whiteSpace=wrap;html=1;fillColor=none;" parent="1" vertex="1">
          <mxGeometry x="1120" y="-600" width="140" height="50" as="geometry" />
        </mxCell>
        <mxCell id="HS7RdtkxgPkFgvcBo9SO-8" style="edgeStyle=orthogonalEdgeStyle;rounded=0;orthogonalLoop=1;jettySize=auto;html=1;exitX=1;exitY=0.5;exitDx=0;exitDy=0;entryX=0;entryY=0.5;entryDx=0;entryDy=0;" parent="1" source="VX3rwLZmTcrIT6lRmgwz-14" target="HS7RdtkxgPkFgvcBo9SO-4" edge="1">
          <mxGeometry relative="1" as="geometry" />
        </mxCell>
        <mxCell id="VX3rwLZmTcrIT6lRmgwz-14" value="基准分支" style="rounded=0;whiteSpace=wrap;html=1;fillColor=none;" parent="1" vertex="1">
          <mxGeometry x="1120" y="-460" width="140" height="50" as="geometry" />
        </mxCell>
        <mxCell id="HS7RdtkxgPkFgvcBo9SO-5" style="edgeStyle=orthogonalEdgeStyle;rounded=0;orthogonalLoop=1;jettySize=auto;html=1;exitX=1;exitY=0.5;exitDx=0;exitDy=0;entryX=0;entryY=0.5;entryDx=0;entryDy=0;" parent="1" source="HS7RdtkxgPkFgvcBo9SO-2" target="VX3rwLZmTcrIT6lRmgwz-5" edge="1">
          <mxGeometry relative="1" as="geometry" />
        </mxCell>
        <mxCell id="HS7RdtkxgPkFgvcBo9SO-6" style="edgeStyle=orthogonalEdgeStyle;rounded=0;orthogonalLoop=1;jettySize=auto;html=1;exitX=1;exitY=0.5;exitDx=0;exitDy=0;entryX=0;entryY=0.5;entryDx=0;entryDy=0;" parent="1" source="HS7RdtkxgPkFgvcBo9SO-2" target="VX3rwLZmTcrIT6lRmgwz-14" edge="1">
          <mxGeometry relative="1" as="geometry" />
        </mxCell>
        <mxCell id="HS7RdtkxgPkFgvcBo9SO-2" value="特征用例库" style="rounded=0;whiteSpace=wrap;html=1;fillColor=none;" parent="1" vertex="1">
          <mxGeometry x="910" y="-525" width="140" height="50" as="geometry" />
        </mxCell>
        <mxCell id="HS7RdtkxgPkFgvcBo9SO-10" style="edgeStyle=orthogonalEdgeStyle;rounded=0;orthogonalLoop=1;jettySize=auto;html=1;exitX=1;exitY=0.5;exitDx=0;exitDy=0;entryX=0;entryY=0.5;entryDx=0;entryDy=0;" parent="1" source="HS7RdtkxgPkFgvcBo9SO-3" target="HS7RdtkxgPkFgvcBo9SO-9" edge="1">
          <mxGeometry relative="1" as="geometry" />
        </mxCell>
        <mxCell id="HS7RdtkxgPkFgvcBo9SO-3" value="特征集+结果" style="rounded=0;whiteSpace=wrap;html=1;fillColor=none;" parent="1" vertex="1">
          <mxGeometry x="1340" y="-600" width="140" height="50" as="geometry" />
        </mxCell>
        <mxCell id="HS7RdtkxgPkFgvcBo9SO-11" style="edgeStyle=orthogonalEdgeStyle;rounded=0;orthogonalLoop=1;jettySize=auto;html=1;exitX=1;exitY=0.5;exitDx=0;exitDy=0;entryX=0;entryY=0.5;entryDx=0;entryDy=0;" parent="1" source="HS7RdtkxgPkFgvcBo9SO-4" target="HS7RdtkxgPkFgvcBo9SO-9" edge="1">
          <mxGeometry relative="1" as="geometry" />
        </mxCell>
        <mxCell id="HS7RdtkxgPkFgvcBo9SO-4" value="特征集+结果" style="rounded=0;whiteSpace=wrap;html=1;fillColor=none;" parent="1" vertex="1">
          <mxGeometry x="1340" y="-460" width="140" height="50" as="geometry" />
        </mxCell>
        <mxCell id="HS7RdtkxgPkFgvcBo9SO-9" value="评测报告&lt;div&gt;（特征覆盖率/结果正确率）&lt;/div&gt;" style="rounded=0;whiteSpace=wrap;html=1;fillColor=none;" parent="1" vertex="1">
          <mxGeometry x="1550" y="-530" width="150" height="50" as="geometry" />
        </mxCell>
      </root>
    </mxGraphModel>
  </diagram>
</mxfile>
